<svg xmlns="http://www.w3.org/2000/svg" xmlns:xlink="http://www.w3.org/1999/xlink" width="450" zoomAndPan="magnify" viewBox="0 0 337.5 30.000001" height="40" preserveAspectRatio="xMidYMid meet" version="1.0"><defs><filter x="0%" y="0%" width="100%" height="100%" id="b4f584023e"><feColorMatrix values="0 0 0 0 1 0 0 0 0 1 0 0 0 0 1 0 0 0 1 0" color-interpolation-filters="sRGB"/></filter><filter x="0%" y="0%" width="100%" height="100%" id="dd1fb9d93b"><feColorMatrix values="0 0 0 0 1 0 0 0 0 1 0 0 0 0 1 0.2126 0.7152 0.0722 0 0" color-interpolation-filters="sRGB"/></filter><clipPath id="b62c98fa0d"><path d="M 15.351562 5 L 61.804688 5 L 61.804688 22 L 15.351562 22 Z M 15.351562 5 " clip-rule="nonzero"/></clipPath><mask id="8b05d47dd8"><g filter="url(#b4f584023e)"><g filter="url(#dd1fb9d93b)" transform="matrix(0.0967742, 0, 0, 0.0967742, 15.35302, 4.857596)"><image x="0" y="0" width="480" height="180" preserveAspectRatio="xMidYMid meet"/></g></g></mask><clipPath id="a2a94ab963"><path d="M 84 9.023438 L 106.972656 9.023438 L 106.972656 22 L 84 22 Z M 84 9.023438 " clip-rule="nonzero"/></clipPath><mask id="2b447c9430"><g filter="url(#b4f584023e)"><g filter="url(#dd1fb9d93b)" transform="matrix(0.154839, 0, 0, 0.15553, 83.745687, 9.024127)"><image x="0" y="0" width="150" height="84" preserveAspectRatio="xMidYMid meet"/></g></g></mask><clipPath id="7e7eb87bba"><path d="M 263 6 L 322.984375 6 L 322.984375 20.886719 L 263 20.886719 Z M 263 6 " clip-rule="nonzero"/></clipPath><mask id="2fbb00fe1c"><g filter="url(#b4f584023e)"><g filter="url(#dd1fb9d93b)" transform="matrix(0.146932, 0, 0, 0.146557, 262.742258, 5.646372)"><image x="0" y="0" width="410" height="104" preserveAspectRatio="xMidYMid meet"/></g></g></mask><clipPath id="aedefa821d"><path d="M 129.3125 6 L 148.90625 6 L 148.90625 21.613281 L 129.3125 21.613281 Z M 129.3125 6 " clip-rule="nonzero"/></clipPath><mask id="34defabfec"><g filter="url(#b4f584023e)"><g filter="url(#dd1fb9d93b)" transform="matrix(0.163306, 0, 0, 0.166331, 129.310796, 5.646372)"><image x="0" y="0" width="120" height="96" preserveAspectRatio="xMidYMid meet"/></g></g></mask><clipPath id="f0bac76950"><path d="M 169.203125 3 L 193 3 L 193 25 L 169.203125 25 Z M 169.203125 3 " clip-rule="nonzero"/></clipPath><mask id="7f5486adf5"><g filter="url(#b4f584023e)"><g filter="url(#dd1fb9d93b)" transform="matrix(0.131602, 0, 0, 0.133136, 169.203698, 2.552121)"><image x="0" y="0" width="182" height="169" preserveAspectRatio="xMidYMid meet"/></g></g></mask><clipPath id="35fbfdf116"><path d="M 213.386719 0 L 242 0 L 242 27.992188 L 213.386719 27.992188 Z M 213.386719 0 " clip-rule="nonzero"/></clipPath><mask id="6cbfd65b02"><g filter="url(#b4f584023e)"><g filter="url(#dd1fb9d93b)" transform="matrix(0.145161, 0, 0, 0.145161, 213.387434, -1.041631)"><image x="0" y="0" width="200" height="200" preserveAspectRatio="xMidYMid meet"/></g></g></mask></defs><g clip-path="url(#b62c98fa0d)"><g mask="url(#8b05d47dd8)"><g transform="matrix(0.0967742, 0, 0, 0.0967742, 15.35302, 4.857596)"><image x="0" y="0" width="480" height="180" preserveAspectRatio="xMidYMid meet"/></g></g></g><g clip-path="url(#a2a94ab963)"><g mask="url(#2b447c9430)"><g transform="matrix(0.154839, 0, 0, 0.15553, 83.745687, 9.024127)"><image x="0" y="0" width="150" height="84" preserveAspectRatio="xMidYMid meet"/></g></g></g><g clip-path="url(#7e7eb87bba)"><g mask="url(#2fbb00fe1c)"><g transform="matrix(0.146932, 0, 0, 0.146557, 262.742258, 5.646372)"><image x="0" y="0" width="410" height="104" preserveAspectRatio="xMidYMid meet"/></g></g></g><g clip-path="url(#aedefa821d)"><g mask="url(#34defabfec)"><g transform="matrix(0.163306, 0, 0, 0.166331, 129.310796, 5.646372)"><image x="0" y="0" width="120" height="96" preserveAspectRatio="xMidYMid meet"/></g></g></g><g clip-path="url(#f0bac76950)"><g mask="url(#7f5486adf5)"><g transform="matrix(0.131602, 0, 0, 0.133136, 169.203698, 2.552121)"><image x="0" y="0" width="182" height="169" preserveAspectRatio="xMidYMid meet"/></g></g></g><g clip-path="url(#35fbfdf116)"><g mask="url(#6cbfd65b02)"><g transform="matrix(0.145161, 0, 0, 0.145161, 213.387434, -1.041631)"><image x="0" y="0" width="200" height="200" preserveAspectRatio="xMidYMid meet"/></g></g></g></svg>